<?xml version="1.0" encoding="UTF-8"?>
<!-- Generator: Adobe Illustrator 15.0.0, SVG Export Plug-In . SVG Version: 6.00 Build 0)  -->
<!DOCTYPE svg PUBLIC "-//W3C//DTD SVG 1.1//EN" "http://www.w3.org/Graphics/SVG/1.1/DTD/svg11.dtd">
<svg version="1.1" id="Calque_1" xmlns="http://www.w3.org/2000/svg" xmlns:xlink="http://www.w3.org/1999/xlink" x="0px" y="0px" width="32px" height="32px" viewBox="0 0 32 32" enable-background="new 0 0 32 32" xml:space="preserve">
<g>
	<path fill="#F69F25" stroke="#6C270D" stroke-width="0.5" d="M15.026,9.632c-0.192,0.278-0.46,0.542-0.779,0.669   c-0.41,0.164-0.869-0.334-1.047-0.272c-0.442,0.152-0.361-1.116-0.354-1.256c0.065-1.317,0.424-2.596,0.492-3.917   c0.071-1.382,0.066-3.565-1.375-4.31C10.97,0.033,9.346,0.417,8.478,1.018C7.735,1.529,7.43,2.352,7.546,3.235   c0.116,0.876,0.927,1.393,1.472,2.05c1.061,1.279,1.652,3.043,1.605,4.72c-0.019,0.678-0.23,1.49-0.877,1.838   c-0.831,0.445-1.55-0.628-2.132-1.045c-1.969-1.406-3.095,1.532-1.63,2.831c0.767,0.68,3.877,1.72,1.987,3.183   c-0.678,0.524-1.479,0.959-2.241,1.338c-0.918,0.458-1.921,0.493-2.819,0.881c-0.583,0.252-0.563,0.916-0.361,1.422   c0.32,0.796,1.114,0.975,1.889,0.756c1.658-0.47,2.721-2.087,4.311-2.707c0.909-0.354,2.893,0.091,1.702,1.387   c-0.895,0.979-2.163,1.998-2.853,3.136c-0.436,0.723,0.228,1.443,0.999,1.064c0.688-0.34,1.313-1.233,1.835-1.773   c0.424-0.437,0.646-0.834,1.268-0.882c0.734-0.058,0.667,1.295,0.7,1.786c0.075,1.08,0.156,2.523-0.348,3.521   c-0.272,0.54-0.496,1.113-0.662,1.697c-0.198,0.688-0.401,1.588-0.027,2.256c0.341,0.609,0.91,0.466,1.458,0.664   c1.068,0.387,1.737-0.562,1.969-1.492c0.581-2.332-0.307-4.693,0.038-7.045c0.186-1.275,1.87-2.997,2.814-1.245   c0.914,1.696,0.79,3.636,0.794,5.49c0.004,2.14,2.495,1.063,3.559,0.436c1.483-0.904,0.587-2.224-0.492-3.186   c-1.07-0.958-2.471-2.044-2.929-3.446c-0.601-1.828,1.815-1.488,2.825-0.898c0.528,0.306,1.193,1.657,2.025,1.114   c0.395-0.253,0.8-1.104,0.604-1.545c-0.304-0.681-1.387-0.812-1.971-1.252c-0.699-0.533-0.299-0.527,0.297-0.543   c2.178-0.057,4.226,0.377,6.001,1.659c1.354,0.977,2.794,0.75,3.078-1.084c0.27-1.751-0.971-2.403-2.667-2.301   c-1.532,0.02-3.063,0.053-4.597-0.01c-1.347-0.055-3.911-0.193-4.358-1.909c-0.414-1.596,4.065-1.77,2.26-3.81   c-0.419-0.475-0.93-1.047-1.604-1.096c-1.173-0.085-1.296,1.385-2.124,1.889c-1.038,0.629-1.566,0.157-1.712-0.957   C16.483,9.007,15.815,8.663,15.026,9.632"/>
	<path fill="#F69F25" stroke="#6C270D" stroke-width="0.5" d="M23.605,7.955c-0.513-1.057,0.088-1.976,1.171-2.281   c1.091-0.308,1.222-0.047,1.751-1.045c0.381-0.716,0.943-0.816,1.456-0.151c0.337,0.439,0.727,1.158,0.353,1.685   c-0.47,0.661-1.392,0.269-1.857,0.841c-0.305,0.374-0.34,0.982-0.661,1.39C25.09,9.317,24.185,8.721,23.605,7.955"/>
	<path fill="#F69F25" stroke="#6C270D" stroke-width="0.5" d="M31.328,26.279c-0.6-1.243-1.467-2.465-2.591-3.282   c-1.213-0.88-4.281-1.309-4.743,0.696c-0.337,1.46,2.995,3.267,4.038,3.827c0.774,0.417,1.943,1.016,2.834,0.611   C31.799,27.813,31.891,27.081,31.328,26.279"/>
	<path fill="#F69F25" stroke="#6C270D" stroke-width="0.5" d="M17.43,6.74c1.098-0.398,2.317-1.185,2.649-2.37   c0.407-1.45-0.617-2.855-1.903-3.409C14.71-0.529,14.8,7.538,17.43,6.74"/>
	<path fill="#F69F25" stroke="#6C270D" stroke-width="0.5" d="M2.94,9.652C2.631,8.536,1.543,6.275,0.498,8.24   C-0.439,10.001,2.815,10.652,2.94,9.652"/>
	<path fill="#F69F25" stroke="#6C270D" stroke-width="0.5" d="M3.956,30.031c0.829-0.023,1.807-0.121,2.509-0.593   c1.01-0.681,0.196-2.049-0.723-2.332C4.858,26.832,2.84,26.188,2.2,27.21C1.462,28.385,2.774,29.989,3.956,30.031"/>
</g>
</svg>